<?xml version="1.0" encoding="utf-8"?>
<!-- Generator: Adobe Illustrator 23.0.1, SVG Export Plug-In . SVG Version: 6.00 Build 0)  -->
<svg version="1.1" id="Camada_1" xmlns="http://www.w3.org/2000/svg" xmlns:xlink="http://www.w3.org/1999/xlink" x="0px" y="0px"
	 viewBox="0 0 500 500" style="enable-background:new 0 0 500 500;" xml:space="preserve">
<style type="text/css">
	.st0{fill:#E1E1E1;}
	.st1{opacity:0.5;}
</style>
<g id="XMLID_27_">
	<polygon id="XMLID_47_" class="st0" points="64.3,341.4 129.6,341.4 100.4,241.5 	"/>
	<polygon id="XMLID_46_" class="st0" points="100.4,241.5 185.2,178.2 129.6,341.4 	"/>
	<polygon id="XMLID_45_" class="st0" points="154.9,90 185.2,178.2 100.4,241.5 	"/>
	<polygon id="XMLID_44_" class="st0" points="185.3,178.2 214.5,90 155.2,90 	"/>
	<polygon id="XMLID_43_" class="st0" points="185.3,178.2 264.9,227.7 214.5,90 	"/>
	<polygon id="XMLID_41_" class="st0" points="240.1,338.5 264.9,227.7 185.3,178.2 	"/>
	<polygon id="XMLID_39_" class="st0" points="240.4,338.5 305.7,338.5 264.9,227.7 	"/>
	<polygon id="XMLID_38_" class="st0" points="230.2,113.2 284.2,131.2 260.6,200.2 	"/>
	<polygon id="XMLID_37_" class="st0" points="230.2,113.2 284.2,131.2 311.4,87.1 239,89.3 	"/>
	<path id="XMLID_36_" class="st0" d="M311.4,87.1l27.7,44c0,0-52.2-1.4-54.8,0S311.4,87.1,311.4,87.1z"/>
	<path id="XMLID_35_" class="st0" d="M339.1,131.2l39.3-36.6c0,0-20.2-9.9-67-7.4L339.1,131.2z"/>
	<path id="XMLID_34_" class="st0" d="M377.8,94.2v71c0,0,1.1-26.6-39.1-34.1L377.8,94.2z"/>
	<path id="XMLID_33_" class="st0" d="M377.8,165.2l51.4-18.1c0,0-13-39.8-51.4-52.9V165.2z"/>
	<path id="XMLID_32_" class="st0" d="M378.1,165.2l54,58.8c0,0,9.4-51-2.6-76.9L378.1,165.2z"/>
	<path id="XMLID_31_" class="st0" d="M432.1,224.1l-60.9,23.3c0,0,16.2-48.7,7-82.1L432.1,224.1z"/>
	<path id="XMLID_30_" class="st0" d="M371.2,247.3l6.3,64.8c0,0,44.4-32.4,54.7-88.1L371.2,247.3z"/>
	<path id="XMLID_29_" class="st0" d="M377.4,312.1l-81.9-16.2c0,0,57.3,2.9,75.6-48.6L377.4,312.1z"/>
	<path id="XMLID_28_" class="st0" d="M377.4,312.1c-37.6,26.5-66.4,25.8-66.4,25.8l-15.4-42L377.4,312.1z"/>
</g>
<g id="XMLID_26_" class="st1">
	<image style="overflow:visible;" width="543" height="90" xlink:href="8B816845.png"  transform="matrix(1 0 0 1 -22 331)">
	</image>
</g>
</svg>
