<svg width="129" height="17" viewBox="0 0 129 17" fill="none" xmlns="http://www.w3.org/2000/svg">
<path d="M6.89801 16.5846H10.1001L11.7241 10.0868L20.9771 16.5846L16.6451 0.103943H11.2301L6.89801 16.5846ZM11.7241 10.0868L13.7257 2.05793H14.1494L16.1507 10.0868H11.7241Z" fill="#FEFEFE"/>
<path d="M0 16.5846H3.20241L7.46232 0.103943H4.3321L0 16.5846Z" fill="#52525B"/>
<path d="M30.7925 16.8023C33.5928 16.8023 36.0638 14.637 36.0638 10.825V10.4485C36.0638 6.63607 33.6162 4.47121 30.7925 4.47121C28.6745 4.47121 27.6627 5.31816 27.1683 6.1421H26.745V0H23.7796V16.4727H26.6978V15.0607H27.1215C27.6627 15.9549 28.6745 16.8023 30.7925 16.8023ZM29.8983 14.2137C28.0864 14.2137 26.6978 13.0133 26.6978 10.7543V10.5188C26.6978 8.2598 28.0625 7.05982 29.8983 7.05982C31.7336 7.05982 33.0988 8.2598 33.0988 10.5188V10.7543C33.0988 13.0133 31.7102 14.2137 29.8983 14.2137ZM38.7934 16.4727H41.7588V9.83659C41.7588 8.18909 42.8413 7.38898 44.347 7.38898H45.8063V4.75349H44.3943C43.3118 4.75349 42.4645 5.17723 42.1353 6.11833H41.7116V4.80074H38.7934V16.4727ZM51.454 16.8023C53.9013 16.8023 54.6307 15.4843 54.8428 14.8958H55.2899V14.9197C55.2899 15.8608 56.1369 16.4727 57.29 16.4727H59.2667V14.0254H58.3256C57.9019 14.0254 57.6665 13.79 57.6665 13.3194V8.96582C57.6665 6.04765 55.737 4.47121 52.6779 4.47121C49.6421 4.47121 48.1126 6.00078 47.5476 7.76582L50.2775 8.68347C50.4891 7.62444 51.1479 6.87158 52.6306 6.87158C54.1368 6.87158 54.7955 7.67165 54.7955 8.75411V9.41294H51.595C48.9596 9.41294 47.077 10.6602 47.077 13.0606C47.077 15.4609 48.9596 16.8023 51.454 16.8023ZM51.9719 14.4019C50.7008 14.4019 50.042 13.8134 50.042 12.9664C50.042 12.1191 50.7008 11.6251 51.8071 11.6251H54.7955V11.8602C54.7955 13.4136 53.619 14.4019 51.9719 14.4019ZM65.0558 16.8023C67.5031 16.8023 68.2325 15.4843 68.4445 14.8958H68.8917V14.9197C68.8917 15.8608 69.7386 16.4727 70.8918 16.4727H72.8685V14.0254H71.9274C71.5037 14.0254 71.2682 13.79 71.2682 13.3194V8.96582C71.2682 6.04765 69.3388 4.47121 66.2797 4.47121C63.2439 4.47121 61.7144 6.00078 61.1493 7.76582L63.8792 8.68347C64.0909 7.62444 64.7497 6.87158 66.2324 6.87158C67.7385 6.87158 68.3973 7.67165 68.3973 8.75411V9.41294H65.1968C62.5613 9.41294 60.6788 10.6602 60.6788 13.0606C60.6788 15.4609 62.5613 16.8023 65.0558 16.8023ZM65.5736 14.4019C64.3026 14.4019 63.6438 13.8134 63.6438 12.9664C63.6438 12.1191 64.3026 11.6251 65.4088 11.6251H68.3973V11.8602C68.3973 13.4136 67.2207 14.4019 65.5736 14.4019ZM80.3516 16.8023C83.8344 16.8023 86.4703 14.5901 86.4703 10.825V10.4485C86.4703 6.68331 83.8344 4.47121 80.3516 4.47121C76.8691 4.47121 74.2333 6.68331 74.2333 10.4485V10.825C74.2333 14.5901 76.8691 16.8023 80.3516 16.8023ZM80.3516 14.1664C78.5397 14.1664 77.1983 12.943 77.1983 10.7543V10.5188C77.1983 8.33048 78.5162 7.10662 80.3516 7.10662C82.1873 7.10662 83.5052 8.33048 83.5052 10.5188V10.7543C83.5052 12.943 82.1638 14.1664 80.3516 14.1664ZM88.6351 16.4727H95.4126C99.8365 16.4727 102.19 14.2137 102.19 9.78935V6.68334C102.19 2.25903 99.8365 0 95.4126 0H88.6351V2.7296H90.8001V13.7427H88.6351V16.4727ZM93.9065 13.6486V2.82372H95.4595C97.954 2.82372 99.0837 4.18884 99.0837 6.58922V9.88346C99.0837 12.2838 97.954 13.6486 95.4595 13.6486H93.9065ZM110.191 16.8023C113.391 16.8023 114.78 14.99 115.438 13.7427L113.015 12.4721C112.615 13.3663 111.932 14.2137 110.285 14.2137C108.638 14.2137 107.391 13.1074 107.32 11.5076H115.815V10.4953C115.815 6.9184 113.58 4.47121 110.144 4.47121C106.661 4.47121 104.308 6.82429 104.308 10.4953V10.7777C104.308 14.4488 106.685 16.8023 110.191 16.8023ZM107.343 9.29535C107.555 7.95399 108.52 7.05982 110.12 7.05982C111.65 7.05982 112.662 7.95399 112.803 9.29535H107.343ZM120.569 16.4727H125.275L128.993 4.80074H125.84L123.134 14.3078H122.71L120.004 4.80074H116.85L120.569 16.4727Z" fill="#FEFEFE"/>
</svg>
